<svg version="1.0" xmlns="http://www.w3.org/2000/svg" viewBox="-0.5 -0.5 33 33" preserveAspectRatio="xMidYMid meet">
  <g transform="translate(0.000000,32.000000) scale(0.100000,-0.100000)" fill="currentColor" stroke="none">
    <path d="M117 235 l-26 -75 30 0 c35 0 35 -1 9 -75 -11 -32 -18 -60 -17 -62 5
-5 117 165 117 177 0 5 -11 10 -25 10 l-26 0 26 43 c14 24 25 47 25 50 0 4
-20 7 -44 7 l-44 0 -25 -75z" />
    <path d="M41 206 l-44 -44 46 -49 c25 -26 49 -44 53 -40 4 4 -10 25 -31 47
l-39 40 37 38 c20 21 37 41 37 45 0 16 -18 5 -59 -37z" />
    <path d="M220 243 c0 -4 17 -24 37 -45 l37 -38 -39 -40 c-21 -22 -35 -43 -31
-47 3 -4 28 14 54 40 l46 47 -44 45 c-42 42 -60 54 -60 38z" />
  </g>
</svg>