<svg version="1.0" fill="currentColor" xmlns="http://www.w3.org/2000/svg" viewBox="0 0 32 32"
  preserveAspectRatio="xMidYMid meet">

  <g transform="translate(0.000000,32.000000) scale(0.100000,-0.100000)" stroke="none">
    <path d="M98 283 c-43 -17 -45 -23 -19 -47 28 -25 71 -3 71 36 0 32 -2 32 -52
11z" />
    <path d="M170 272 c0 -39 43 -61 71 -36 27 24 24 30 -21 48 -52 21 -50 21 -50
-12z" />
    <path d="M16 206 c-22 -47 -20 -56 12 -56 39 0 61 43 36 71 -23 26 -29 24 -48
-15z" />
    <path d="M256 221 c-25 -28 -3 -71 36 -71 32 0 34 9 12 56 -19 39 -25 41 -48
15z" />
    <path d="M142 158 c-7 -7 -12 -18 -12 -25 0 -15 100 -84 112 -77 8 5 -19 51
-55 92 -23 25 -28 27 -45 10z" />
    <path d="M0 120 c0 -19 27 -75 42 -87 12 -11 18 -10 31 5 15 17 15 21 -1 55
-13 29 -23 36 -44 37 -16 0 -28 -5 -28 -10z" />
    <path d="M257 111 c-2 -10 0 -26 5 -35 6 -11 6 -22 -2 -31 -17 -20 5 -27 23
-7 16 17 37 65 37 83 0 5 -13 9 -29 9 -20 0 -30 -6 -34 -19z" />
  </g>
</svg>