<svg width="0" height="0" style="display: none">

<symbol id="2d" viewBox="0 0 64 64" fill="currentColor" xmlns="http://www.w3.org/2000/svg">
  <text x="-1" y="50" font-size="52" font-weight="600" font-family="Arial">2D</text>
</symbol>
<symbol id="3d" viewBox="0 0 64 64" fill="currentColor" xmlns="http://www.w3.org/2000/svg">
  <text x="-1" y="50" font-size="52" font-weight="600" font-family="Arial">3D</text>
</symbol>
<symbol id="android" fill="currentColor" version="1.1" xmlns="http://www.w3.org/2000/svg" xmlns:xlink="http://www.w3.org/1999/xlink"
	width="800px" height="800px" viewBox="0 0 512 512" enable-background="new 0 0 512 512" xml:space="preserve">

	<g >

		<path display="inline" d="M120.606,169h270.788v220.663c0,13.109-10.628,23.737-23.721,23.737h-27.123v67.203
		c0,17.066-13.612,30.897-30.415,30.897c-16.846,0-30.438-13.831-30.438-30.897v-67.203h-47.371v67.203
		c0,17.066-13.639,30.897-30.441,30.897c-16.799,0-30.437-13.831-30.437-30.897v-67.203h-27.099
		c-13.096,0-23.744-10.628-23.744-23.737V169z M67.541,167.199c-16.974,0-30.723,13.963-30.723,31.2v121.937
		c0,17.217,13.749,31.204,30.723,31.204c16.977,0,30.723-13.987,30.723-31.204V198.399
		C98.264,181.162,84.518,167.199,67.541,167.199z M391.395,146.764H120.606c3.342-38.578,28.367-71.776,64.392-90.998
		l-25.746-37.804c-3.472-5.098-2.162-12.054,2.946-15.525c5.102-3.471,12.044-2.151,15.533,2.943l28.061,41.232
		c15.558-5.38,32.446-8.469,50.208-8.469c17.783,0,34.672,3.089,50.229,8.476L334.29,5.395c3.446-5.108,10.41-6.428,15.512-2.957
		c5.108,3.471,6.418,10.427,2.946,15.525l-25.725,37.804C363.047,74.977,388.055,108.175,391.395,146.764z M213.865,94.345
		c0-8.273-6.699-14.983-14.969-14.983c-8.291,0-14.99,6.71-14.99,14.983c0,8.269,6.721,14.976,14.99,14.976
		S213.865,102.614,213.865,94.345z M329.992,94.345c0-8.273-6.722-14.983-14.99-14.983c-8.291,0-14.97,6.71-14.97,14.983
		c0,8.269,6.679,14.976,14.97,14.976C323.271,109.321,329.992,102.614,329.992,94.345z M444.48,167.156
		c-16.956,0-30.744,13.984-30.744,31.222v121.98c0,17.238,13.788,31.226,30.744,31.226c16.978,0,30.701-13.987,30.701-31.226
		v-121.98C475.182,181.14,461.458,167.156,444.48,167.156z">

		</path>

	</g>

</symbol>
<symbol id="angular" viewBox="2.5 2.5 19 19" fill="currentColor" xmlns="http://www.w3.org/2000/svg">
  <path
    d="M12,2.5l8.84,3.15L19.5,17.35,12,21.5,4.5,17.35,3.16,5.65,12,2.5m0,2.1L6.47,17H8.53l1.11-2.78h4.7L15.45,17H17.5L12,4.6m1.62,7.9H10.39L12,8.63Z" />
</symbol>
<symbol id="azure" viewBox="0.5 0.5 15 15" xmlns="http://www.w3.org/2000/svg" fill="currentColor">
  <path fill-rule="evenodd" clip-rule="evenodd"
    d="M15.3702 13.6799L11.3702 1.67989C11.3006 1.47291 11.1652 1.29438 10.9846 1.17159C10.804 1.0488 10.5882 0.988513 10.3702 0.999896H5.63017C5.42052 0.999354 5.21598 1.0647 5.04551 1.18672C4.87504 1.30875 4.74724 1.48127 4.68015 1.67989L0.630165 13.6799C0.577646 13.8346 0.56382 13.9998 0.589943 14.1611C0.616066 14.3225 0.681335 14.4749 0.780007 14.6052C0.878678 14.7354 1.00778 14.8395 1.15598 14.9083C1.30419 14.9771 1.46699 15.0086 1.63017 14.9999H4.56016C4.76809 14.9984 4.97035 14.932 5.13883 14.8101C5.30731 14.6883 5.43363 14.5169 5.50016 14.3199L6.11015 12.5399L9.11015 14.8099C9.28448 14.9362 9.49495 15.0028 9.71018 14.9999H14.3902C14.5517 15.0052 14.7121 14.9712 14.8576 14.901C15.0032 14.8307 15.1295 14.7263 15.2259 14.5965C15.3222 14.4668 15.3856 14.3156 15.4107 14.156C15.4359 13.9963 15.422 13.833 15.3702 13.6799ZM9.75016 14.3399C9.67748 14.3399 9.60693 14.3153 9.55015 14.2699L3.90018 10.0799L3.81016 10.0099H6.81016L6.89017 9.79988L7.89017 7.26988L10.1302 13.8999C10.1482 13.9555 10.1515 14.0148 10.1399 14.072C10.1283 14.1293 10.1022 14.1826 10.064 14.2269C10.0258 14.2711 9.97689 14.3047 9.92191 14.3245C9.86694 14.3443 9.80778 14.3496 9.75016 14.3399V14.3399ZM14.4201 14.3399H10.7002C10.7749 14.1262 10.7749 13.8935 10.7002 13.6799L6.65018 1.67989H10.3702C10.4408 1.68024 10.5095 1.70258 10.5669 1.74379C10.6242 1.78501 10.6673 1.84308 10.6902 1.9099L14.7402 13.9099C14.7538 13.9597 14.756 14.012 14.7464 14.0628C14.7369 14.1136 14.7159 14.1615 14.6851 14.203C14.6542 14.2444 14.6144 14.2783 14.5685 14.302C14.5226 14.3257 14.4718 14.3387 14.4201 14.3399V14.3399Z" />
</symbol>
<symbol id="bicep" version="1.0" fill="currentColor" xmlns="http://www.w3.org/2000/svg" viewBox="1.5 1.5 29 29"
  preserveAspectRatio="xMidYMid meet">

  <g transform="translate(0.000000,32.000000) scale(0.100000,-0.100000)" stroke="none">
    <path d="M72 296 c-28 -34 -67 -222 -51 -242 18 -22 87 -36 158 -32 61 3 75 8
98 30 31 32 35 78 8 108 -26 28 -83 26 -129 -5 -20 -14 -39 -25 -41 -25 -3 0
-5 25 -5 55 0 43 3 55 15 55 14 0 38 39 30 48 -11 12 -76 18 -83 8z" />
  </g>
</symbol>
<symbol id="blender" fill="currentColor" version="1.1" xmlns="http://www.w3.org/2000/svg" xmlns:xlink="http://www.w3.org/1999/xlink"
	viewBox="0 0 512 512" enable-background="new 0 0 512 512" xml:space="preserve">

	<g >

		<path display="inline" d="M510.003,279.642c-2.998-21.097-10.305-41.104-21.724-59.459c-9.96-16.019-22.739-30.266-37.992-42.375
		l0.041-0.038L290.133,54.731c-0.133-0.116-0.27-0.224-0.361-0.287c-5.327-4.08-12.538-6.325-20.298-6.325
		c-7.769,0-15.262,2.25-21.088,6.337c-6.263,4.375-9.843,10.18-10.093,16.36c-0.229,5.764,2.521,11.311,7.764,15.636
		c10.31,8.134,20.598,16.447,30.898,24.768c9.997,8.08,20.298,16.401,30.549,24.502l-196.213-0.133
		c-22.439,0-37.718,10.537-40.861,28.178c-1.381,7.727,1.056,16.223,6.504,22.73c5.78,6.899,14.172,10.704,23.629,10.704
		l14.958,0.009c20.664,0,41.419-0.05,62.146-0.1l19.766-0.046L19.354,328.812l-0.707,0.516C8.7,336.954,2.188,347.642,0.783,358.653
		c-1.065,8.342,0.881,15.965,5.63,22.053c5.66,7.257,14.497,11.249,24.885,11.249c10.205,0,20.618-3.867,29.334-10.908l96.166-78.7
		c-0.411,3.843-0.91,9.481-0.853,13.573c0.108,6.479,2.188,19.479,5.481,30.033c6.804,21.691,18.265,41.536,34.063,58.964
		c16.438,18.131,36.458,32.508,59.5,42.721c24.361,10.774,50.547,16.243,77.836,16.243h0.253
		c27.376-0.066,53.646-5.622,78.085-16.518c23.08-10.334,43.091-24.769,59.467-42.899c15.778-17.516,27.222-37.394,34.013-59.067
		c3.356-10.721,5.519-21.82,6.417-33.003C511.899,301.565,511.538,290.545,510.003,279.642z M334.821,383.601
		c-60.142,0-108.912-43.627-108.912-97.447c0-53.815,48.771-97.442,108.912-97.442c60.141,0,108.907,43.627,108.907,97.442
		C443.729,339.974,394.962,383.601,334.821,383.601z M397.627,277.591c0.886,16.064-5.53,30.978-16.796,42.019
		c-11.461,11.248-27.816,18.313-46.102,18.313c-18.281,0-34.637-7.065-46.102-18.313c-11.262-11.041-17.665-25.954-16.784-42.006
		c0.865-15.603,8.476-29.376,19.94-39.128c11.273-9.589,26.411-15.44,42.945-15.44c16.538,0,31.671,5.852,42.945,15.44
		C389.14,248.228,396.754,261.992,397.627,277.591z">

		</path>

	</g>

</symbol>
<symbol id="check" fill="currentColor" viewBox="2.5 2.5 27 27" version="1.1" xmlns="http://www.w3.org/2000/svg">
  <path
    d="M28.998 8.531l-2.134-2.134c-0.394-0.393-1.030-0.393-1.423 0l-12.795 12.795-6.086-6.13c-0.393-0.393-1.029-0.393-1.423 0l-2.134 2.134c-0.393 0.394-0.393 1.030 0 1.423l8.924 8.984c0.393 0.393 1.030 0.393 1.423 0l15.648-15.649c0.393-0.392 0.393-1.030 0-1.423z">
  </path>
</symbol>
<symbol id="copy" viewBox="1 1 22 22" stroke="none" fill="currentColor" xmlns="http://www.w3.org/2000/svg">
  <path fill-rule="evenodd" clip-rule="evenodd"
    d="M15 1.25H10.9436C9.10583 1.24998 7.65019 1.24997 6.51098 1.40314C5.33856 1.56076 4.38961 1.89288 3.64124 2.64124C2.89288 3.38961 2.56076 4.33856 2.40314 5.51098C2.24997 6.65019 2.24998 8.10582 2.25 9.94357V16C2.25 17.8722 3.62205 19.424 5.41551 19.7047C5.55348 20.4687 5.81753 21.1208 6.34835 21.6517C6.95027 22.2536 7.70814 22.5125 8.60825 22.6335C9.47522 22.75 10.5775 22.75 11.9451 22.75H15.0549C16.4225 22.75 17.5248 22.75 18.3918 22.6335C19.2919 22.5125 20.0497 22.2536 20.6517 21.6517C21.2536 21.0497 21.5125 20.2919 21.6335 19.3918C21.75 18.5248 21.75 17.4225 21.75 16.0549V10.9451C21.75 9.57754 21.75 8.47522 21.6335 7.60825C21.5125 6.70814 21.2536 5.95027 20.6517 5.34835C20.1208 4.81753 19.4687 4.55348 18.7047 4.41551C18.424 2.62205 16.8722 1.25 15 1.25ZM17.1293 4.27117C16.8265 3.38623 15.9876 2.75 15 2.75H11C9.09318 2.75 7.73851 2.75159 6.71085 2.88976C5.70476 3.02502 5.12511 3.27869 4.7019 3.7019C4.27869 4.12511 4.02502 4.70476 3.88976 5.71085C3.75159 6.73851 3.75 8.09318 3.75 10V16C3.75 16.9876 4.38624 17.8265 5.27117 18.1293C5.24998 17.5194 5.24999 16.8297 5.25 16.0549V10.9451C5.24998 9.57754 5.24996 8.47522 5.36652 7.60825C5.48754 6.70814 5.74643 5.95027 6.34835 5.34835C6.95027 4.74643 7.70814 4.48754 8.60825 4.36652C9.47522 4.24996 10.5775 4.24998 11.9451 4.25H15.0549C15.8297 4.24999 16.5194 4.24998 17.1293 4.27117ZM7.40901 6.40901C7.68577 6.13225 8.07435 5.9518 8.80812 5.85315C9.56347 5.75159 10.5646 5.75 12 5.75H15C16.4354 5.75 17.4365 5.75159 18.1919 5.85315C18.9257 5.9518 19.3142 6.13225 19.591 6.40901C19.8678 6.68577 20.0482 7.07435 20.1469 7.80812C20.2484 8.56347 20.25 9.56458 20.25 11V16C20.25 17.4354 20.2484 18.4365 20.1469 19.1919C20.0482 19.9257 19.8678 20.3142 19.591 20.591C19.3142 20.8678 18.9257 21.0482 18.1919 21.1469C17.4365 21.2484 16.4354 21.25 15 21.25H12C10.5646 21.25 9.56347 21.2484 8.80812 21.1469C8.07435 21.0482 7.68577 20.8678 7.40901 20.591C7.13225 20.3142 6.9518 19.9257 6.85315 19.1919C6.75159 18.4365 6.75 17.4354 6.75 16V11C6.75 9.56458 6.75159 8.56347 6.85315 7.80812C6.9518 7.07435 7.13225 6.68577 7.40901 6.40901Z" />
</symbol>
<symbol id="download" viewBox="2 2 20 20" fill="none" stroke="currentColor" xmlns="http://www.w3.org/2000/svg">
  <g >
    <path id="Vector" d="M6 21H18M12 3V17M12 17L17 12M12 17L7 12" stroke-width="2" stroke-linecap="round"
      stroke-linejoin="round" />
  </g>
</symbol>
<symbol id="education" fill="currentColor" version="1.1"  xmlns="http://www.w3.org/2000/svg"
	xmlns:xlink="http://www.w3.org/1999/xlink" viewBox="1052 796 200 200" enable-background="new 1052 796 200 200"
	xml:space="preserve">
	<g>
		<path d="M1151.998,921.75c-4.129,0-8.17-0.771-12.01-2.292l-50.167-19.888c0,11.08,0,27.65,0,32.066
		c0,15.562,27.836,28.174,62.178,28.174s62.181-12.612,62.181-28.174v-32.067l-50.172,19.889
		C1160.168,920.979,1156.127,921.75,1151.998,921.75z" />
		<path d="M1248.592,867.082l-87.989-34.878c-5.526-2.19-11.681-2.19-17.208,0l-87.988,34.878c-2.057,0.815-3.407,2.804-3.407,5.016
		c0,2.213,1.351,4.201,3.407,5.017l12.317,4.882v34.925c-2.736,1.865-4.533,5.007-4.533,8.568c0,3.262,1.508,6.171,3.863,8.071
		l-3.751,18.007c-0.503,2.416,0.108,4.931,1.666,6.845c1.557,1.915,3.894,3.026,6.361,3.026h4.449c2.468,0,4.804-1.111,6.361-3.026
		c1.557-1.914,2.168-4.429,1.666-6.845l-3.752-18.007c2.356-1.9,3.864-4.81,3.864-8.071c0-3.562-1.797-6.703-4.533-8.568v-30.303
		l63.729,25.264c5.708,2.263,12.063,2.263,17.771,0l87.709-34.768c2.057-0.815,3.407-2.804,3.407-5.017
		C1252,869.886,1250.649,867.897,1248.592,867.082z" />
	</g>
</symbol>
<symbol id="email" fill="currentColor" viewBox="0 0 1920 1920" xmlns="http://www.w3.org/2000/svg">
  <path
    d="M1920 428.266v1189.54l-464.16-580.146-88.203 70.585 468.679 585.904H83.684l468.679-585.904-88.202-70.585L0 1617.805V428.265l959.944 832.441L1920 428.266ZM1919.932 226v52.627l-959.943 832.44L.045 278.628V226h1919.887Z"
    fill-rule="evenodd" />
</symbol>
<symbol id="external" fill="currentColor" viewBox="0 0 1024 1024" xmlns="http://www.w3.org/2000/svg">
  <path
    d="M960 704c-35.346 0-64 28.654-64 64v64c0 35.346-28.654 64-64 64H192c-35.346 0-64-28.654-64-64V192c0-35.346 28.654-64 64-64h64c35.346 0 64-28.654 64-64S291.346 0 256 0h-64C85.961 0 0 85.961 0 192v640c0 106.039 85.961 192 192 192h640c106.039 0 192-85.961 192-192v-64c0-35.346-28.654-64-64-64z" />
  <path
    d="M1023.876 51.52c0-1.92 0-3.84-1.6-5.44a63.957 63.957 0 00-1.92-6.4 63.973 63.973 0 00-3.2-6.4s0-3.2-2.56-4.8a63.989 63.989 0 00-17.6-17.6L991.876 8l-6.08-3.2-6.72-1.92h-5.44A64.028 64.028 0 00959.876 0h-384c-35.346 0-64 28.654-64 64s28.654 64 64 64h229.44l-370.56 370.88c-25.007 25.007-25.007 65.553 0 90.56s65.553 25.007 90.56 0l370.56-370.88V448c0 35.346 28.654 64 64 64s64-28.654 64-64V64c.407-4.15.407-8.33 0-12.48z" />
</symbol>
<symbol id="figma" viewBox="2 2 20 20" fill="none" stroke="currentColor" xmlns="http://www.w3.org/2000/svg">
  <path
    d="M12 3H9C7.34315 3 6 4.34315 6 6C6 7.65685 7.34315 9 9 9M12 3V9M12 3H15C16.6569 3 18 4.34315 18 6C18 7.65685 16.6569 9 15 9M12 9H9M12 9H15M12 9V15M9 9C7.34315 9 6 10.3431 6 12C6 13.6569 7.34315 15 9 15M15 9C16.6569 9 18 10.3431 18 12C18 13.6569 16.6569 15 15 15C13.3431 15 12 13.6569 12 12C12 10.3431 13.3431 9 15 9ZM12 15H9M12 15V18C12 19.6569 10.6569 21 9 21C7.34315 21 6 19.6569 6 18C6 16.3431 7.34315 15 9 15"
    stroke-width="2" stroke-linecap="round" stroke-linejoin="round" />
</symbol>
<symbol id="firebase" fill="currentColor" viewBox="1 1 30 30" version="1.1" xmlns="http://www.w3.org/2000/svg">
  <path
    d="M18.874 9.935l-2.274-4.351c-0.116-0.217-0.341-0.363-0.6-0.363s-0.484 0.145-0.598 0.359l-0.002 0.004-9.985 17.894zM26.852 25.202l-2.812-17.495c-0.052-0.325-0.331-0.571-0.667-0.571-0.189 0-0.359 0.077-0.482 0.202l-0 0-17.744 17.865 9.817 5.532c0.286 0.163 0.628 0.26 0.992 0.26s0.707-0.096 1.002-0.265l-0.010 0.005zM5.865 20.589l2.955-19.008c0.051-0.328 0.331-0.577 0.67-0.577 0.258 0 0.483 0.144 0.597 0.357l0.002 0.004 3.178 5.962z">
  </path>
</symbol>
<symbol id="function" version="1.0" xmlns="http://www.w3.org/2000/svg" viewBox="-0.5 -0.5 33 33" preserveAspectRatio="xMidYMid meet">
  <g transform="translate(0.000000,32.000000) scale(0.100000,-0.100000)" fill="currentColor" stroke="none">
    <path d="M117 235 l-26 -75 30 0 c35 0 35 -1 9 -75 -11 -32 -18 -60 -17 -62 5
-5 117 165 117 177 0 5 -11 10 -25 10 l-26 0 26 43 c14 24 25 47 25 50 0 4
-20 7 -44 7 l-44 0 -25 -75z" />
    <path d="M41 206 l-44 -44 46 -49 c25 -26 49 -44 53 -40 4 4 -10 25 -31 47
l-39 40 37 38 c20 21 37 41 37 45 0 16 -18 5 -59 -37z" />
    <path d="M220 243 c0 -4 17 -24 37 -45 l37 -38 -39 -40 c-21 -22 -35 -43 -31
-47 3 -4 28 14 54 40 l46 47 -44 45 c-42 42 -60 54 -60 38z" />
  </g>
</symbol>
<symbol id="game" version="1.1"  fill="currentColor" xmlns="http://www.w3.org/2000/svg"
	xmlns:xlink="http://www.w3.org/1999/xlink" viewBox="0 0 512 512" xml:space="preserve">
	<g>
		<path d="M510.441,322.894l-29.76-126.56c-15.073-56.252-66.047-95.363-124.286-95.363H155.604
		c-58.239,0-109.212,39.11-124.285,95.363l-29.76,126.56c-7.618,36.303,13.34,72.524,48.626,84.001l1.74,0.558
		c32.658,10.632,68.288-3.07,85.429-32.831l25.894-38.289c6.502-11.288,18.538-18.25,31.55-18.25h122.406
		c13.012,0,25.048,6.962,31.549,18.25l25.894,38.289c17.142,29.761,52.779,43.463,85.438,32.831l1.732-0.558
		C497.1,395.418,518.06,359.197,510.441,322.894z M191.046,238.081h-41.689v41.696h-36.295v-41.696H71.373v-36.279h41.689v-41.68
		h36.295v41.68h41.689V238.081z M374.728,151.436c12.626,0,22.847,10.221,22.847,22.848c0,12.61-10.221,22.831-22.847,22.831
		c-12.61,0-22.831-10.221-22.831-22.831C351.897,161.656,362.118,151.436,374.728,151.436z M329.049,242.801
		c-12.61,0-22.839-10.23-22.839-22.856c0-12.602,10.229-22.831,22.839-22.831c12.618,0,22.839,10.229,22.839,22.831
		C351.889,232.572,341.668,242.801,329.049,242.801z M374.728,288.471c-12.61,0-22.831-10.221-22.831-22.831
		c0-12.627,10.221-22.848,22.831-22.848c12.626,0,22.847,10.221,22.847,22.848C397.575,278.25,387.354,288.471,374.728,288.471z
		 M420.406,242.801c-12.61,0-22.832-10.23-22.832-22.856c0-12.602,10.222-22.831,22.832-22.831
		c12.618,0,22.847,10.229,22.847,22.831C443.253,232.572,433.024,242.801,420.406,242.801z" />
	</g>
</symbol>
<symbol id="github" viewBox="0 0 20 20" version="1.1" xmlns="http://www.w3.org/2000/svg" xmlns:xlink="http://www.w3.org/1999/xlink">
    <g  stroke="none" stroke-width="1" fill="none" fill-rule="evenodd">
        <g id="Dribbble-Light-Preview" transform="translate(-140.000000, -7559.000000)" fill="currentColor">
            <g id="icons" transform="translate(56.000000, 160.000000)">
                <path
                    d="M94,7399 C99.523,7399 104,7403.59 104,7409.253 C104,7413.782 101.138,7417.624 97.167,7418.981 C96.66,7419.082 96.48,7418.762 96.48,7418.489 C96.48,7418.151 96.492,7417.047 96.492,7415.675 C96.492,7414.719 96.172,7414.095 95.813,7413.777 C98.04,7413.523 100.38,7412.656 100.38,7408.718 C100.38,7407.598 99.992,7406.684 99.35,7405.966 C99.454,7405.707 99.797,7404.664 99.252,7403.252 C99.252,7403.252 98.414,7402.977 96.505,7404.303 C95.706,7404.076 94.85,7403.962 94,7403.958 C93.15,7403.962 92.295,7404.076 91.497,7404.303 C89.586,7402.977 88.746,7403.252 88.746,7403.252 C88.203,7404.664 88.546,7405.707 88.649,7405.966 C88.01,7406.684 87.619,7407.598 87.619,7408.718 C87.619,7412.646 89.954,7413.526 92.175,7413.785 C91.889,7414.041 91.63,7414.493 91.54,7415.156 C90.97,7415.418 89.522,7415.871 88.63,7414.304 C88.63,7414.304 88.101,7413.319 87.097,7413.247 C87.097,7413.247 86.122,7413.234 87.029,7413.87 C87.029,7413.87 87.684,7414.185 88.139,7415.37 C88.139,7415.37 88.726,7417.2 91.508,7416.58 C91.513,7417.437 91.522,7418.245 91.522,7418.489 C91.522,7418.76 91.338,7419.077 90.839,7418.982 C86.865,7417.627 84,7413.783 84,7409.253 C84,7403.59 88.478,7399 94,7399"
                    id="github-[#142]">

                </path>
            </g>
        </g>
    </g>
</symbol>
<symbol id="info" viewBox="2 2 20 20" fill="currentColor" xmlns="http://www.w3.org/2000/svg" stroke="currentColor"
  stroke-width="0.00024000000000000003">
  <g  stroke-width="0" />
  <g id="SVGRepo_iconCarrier">
    <path fill-rule="evenodd" clip-rule="evenodd"
      d="M22 12C22 17.5228 17.5228 22 12 22C6.47715 22 2 17.5228 2 12C2 6.47715 6.47715 2 12 2C17.5228 2 22 6.47715 22 12ZM12 17.75C12.4142 17.75 12.75 17.4142 12.75 17V11C12.75 10.5858 12.4142 10.25 12 10.25C11.5858 10.25 11.25 10.5858 11.25 11V17C11.25 17.4142 11.5858 17.75 12 17.75ZM12 7C12.5523 7 13 7.44772 13 8C13 8.55228 12.5523 9 12 9C11.4477 9 11 8.55228 11 8C11 7.44772 11.4477 7 12 7Z" />
  </g>

</symbol>
<symbol id="java" fill="currentColor" version="1.1" xmlns="http://www.w3.org/2000/svg" xmlns:xlink="http://www.w3.org/1999/xlink"
  viewBox="-9 -9 530 530" enable-background="new 0 0 512 512" xml:space="preserve" stroke="currentColor"
  stroke-width="6.144">

  <g  stroke-width="0" />

  <g id="SVGRepo_tracerCarrier" stroke-linecap="round" stroke-linejoin="round" />

  <g id="SVGRepo_iconCarrier">
    <g id="5151e0c8492e5103c096af88a51e8d81">
      <path display="inline"
        d="M193.918,208.369c-4.729-10.456-6.849-22.652-3.236-33.731c3.612-11.327,11.703-20.413,19.794-28.878 c22.525-22.531,50.285-39.085,72.316-61.986c12.197-12.573,22.278-27.634,25.762-44.937c2.864-12.695,1.496-25.764-1.117-38.337 c11.7,13.319,15.559,32.363,12.197,49.541c-3.608,19.292-14.316,36.344-26.886,51.031c-10.081,11.827-21.659,22.282-33.731,31.993 c-14.065,11.327-27.88,23.524-36.716,39.457c-7.472,12.943-9.215,28.876-4.11,42.942c8.341,24.146,27.756,42.071,38.338,64.848 c-11.703-10.332-23.152-21.036-33.86-32.361C211.471,236.001,200.889,223.307,193.918,208.369z M257.398,189.448 c-2.115,19.792,8.213,38.462,20.539,53.151c5.972,6.596,11.076,14.687,11.323,23.899c0.251,12.318-6.716,23.774-15.684,31.861 c2.119-0.246,3.612-2.115,5.355-3.11c13.443-8.589,26.385-19.418,32.982-34.227c4.357-10.083,3.362-22.034-2.362-31.371 c-6.724-10.953-15.559-20.662-20.786-32.61c-2.867-6.721-3.862-14.562-1.496-21.657c3.114-9.583,9.834-17.426,16.93-24.272 c19.54-18.544,43.189-31.743,65.844-46.179c-28.629,8.214-56.883,19.542-81.03,37.343 C273.702,153.727,259.515,169.658,257.398,189.448z M393.447,283.052c13.568,0.748,26.882,10.704,29.374,24.397 c2.366,11.825-3.358,23.524-10.705,32.485c-12.075,14.438-28.382,24.771-44.807,33.609c-1.622,0.991-2.99,2.237-4.235,3.608 c21.659-5.478,43.314-13.689,60.867-27.756c9.705-8.091,18.294-18.799,20.163-31.619c1.743-11.076-2.86-22.528-11.077-29.871 c-9.96-9.09-24.021-12.448-37.218-10.704c-7.593,0.995-15.931,2.613-21.158,8.961C380.877,284.921,386.971,282.429,393.447,283.052 z M123.22,318.647c16.303,4.357,33.108,5.603,49.787,6.724c14.936,0.995,29.875,1.246,44.937,1.12 c38.833-0.619,77.916-3.236,116.003-11.699c3.608-0.87,7.593-1.493,10.833-3.733c6.347-4.11,13.313-7.347,20.162-10.583 c-30.995,4.979-62.113,9.215-93.478,11.205c-31.74,1.991-63.731,3.236-95.593,1.121c-9.086-0.87-18.423-1.371-26.886-4.858 c-1.994-0.87-4.733-2.609-3.738-5.227c1.869-3.361,5.603-4.977,8.839-6.72c13.694-6.473,28.629-10.081,43.193-14.313 c-25.021-0.376-49.916,5.971-72.814,15.806c-5.105,2.491-10.83,4.481-14.936,8.714c-1.622,1.739-1.622,4.732,0.247,6.222 C113.511,315.787,118.487,317.28,123.22,318.647z M324.864,352.88c-21.784,3.859-43.694,7.472-65.726,8.589 c-24.147,1.618-48.294,0.247-72.191-2.241c-4.604-0.623-9.211-1.368-13.317-3.483c-2.116-1.246-4.231-3.236-4.106-5.854 c0.247-4.106,3.73-6.967,6.222-9.956c-7.715,2.739-15.434,5.599-21.906,10.708c-2.742,2.116-5.478,5.474-4.733,9.208 c1.125,4.356,5.356,6.97,9.09,8.96c9.208,4.733,19.54,6.846,29.625,8.714c25.511,4.11,51.527,4.235,77.167,2.488 c27.141-2.115,54.148-6.594,80.411-14.313C337.932,362.342,330.836,358.479,324.864,352.88z M188.068,395.951 c-6.97,1.99-14.066,4.357-19.79,8.957c-2.868,2.241-5.105,6.104-3.734,9.713c1.743,4.604,6.1,7.347,10.203,9.705 c10.708,5.854,22.78,8.589,34.604,10.708c26.765,4.229,54.27,3.608,80.908-1.12c15.806-2.989,31.615-7.221,46.301-13.815 c-9.584-3.984-18.917-8.467-27.878-13.693c-15.559,2.738-31.246,5.603-47.178,6.598c-21.032,1.618-42.319-0.125-63.355-2.738 c-4.98-1.121-11.202-1.618-14.563-5.976C181.847,400.677,185.828,398.063,188.068,395.951z M358.345,475.982 c17.424-3.604,34.977-7.719,50.908-15.806c4.976-2.867,11.076-5.979,12.698-11.95c0.87-5.725-5.105-8.714-9.337-11.08 c2.613,2.993,4.356,7.347,1.74,10.83c-4.357,5.853-11.821,8.091-18.42,10.332c-20.66,5.85-42.072,8.216-63.355,10.582 c-56.385,5.102-113.146,6.348-169.528,1.618c-18.92-1.994-38.217-4.109-56.264-10.829c-2.86-1.246-7.217-2.492-7.217-6.352 c1.117-3.354,4.357-5.227,7.217-6.845c12.945-6.595,27.384-10.207,41.822-11.077c-4.228-2.491-9.208-2.738-14.062-2.613 c-12.076,0.373-23.9,3.483-35.349,7.347c-9.834,3.604-19.916,7.59-27.76,14.811c-3.111,2.735-5.971,7.962-2.739,11.699 c4.98,5.353,12.699,6.72,19.54,8.338c38.338,6.599,77.171,10.328,116.011,11.699C255.781,488.184,307.684,485.942,358.345,475.982z M409.378,482.706c-23.402,7.468-47.672,11.574-71.822,14.936c-41.696,5.227-83.769,6.845-125.716,5.603 c-25.515-0.995-51.03-2.738-76.176-6.974c5.85,3.984,13.071,5.227,19.794,7.096c28.257,5.976,57.255,7.096,86.01,7.966 c42.19,0.748,84.387-0.87,125.962-7.468c19.669-3.48,39.459-7.715,57.13-16.927c9.215-4.854,18.552-12.326,20.163-23.152 C435.391,473.741,421.951,478.349,409.378,482.706z">
      </path>
    </g>
  </g>

</symbol>
<symbol id="javascript" viewBox="0 0 20 20" version="1.1" xmlns="http://www.w3.org/2000/svg" xmlns:xlink="http://www.w3.org/1999/xlink">
    <g  stroke="none" stroke-width="1" fill="none" fill-rule="evenodd">
        <g id="Dribbble-Light-Preview" transform="translate(-420.000000, -7479.000000)" fill="currentColor">
            <g id="icons" transform="translate(56.000000, 160.000000)">
                <path
                    d="M379.328,7337.432 C377.583,7337.432 376.455,7336.6 375.905,7335.512 L375.905,7335.512 L377.435,7334.626 C377.838,7335.284 378.361,7335.767 379.288,7335.767 C380.066,7335.767 380.563,7335.378 380.563,7334.841 C380.563,7334.033 379.485,7333.717 378.724,7333.391 C377.368,7332.814 376.468,7332.089 376.468,7330.558 C376.468,7329.149 377.542,7328.075 379.221,7328.075 C380.415,7328.075 381.275,7328.491 381.892,7329.578 L380.429,7330.518 C380.107,7329.941 379.758,7329.713 379.221,7329.713 C378.67,7329.713 378.321,7330.062 378.321,7330.518 C378.321,7331.082 378.67,7331.31 379.476,7331.659 C381.165,7332.383 382.443,7332.952 382.443,7334.814 C382.443,7336.506 381.114,7337.432 379.328,7337.432 L379.328,7337.432 Z M375,7334.599 C375,7336.546 373.801,7337.575 372.136,7337.575 C370.632,7337.575 369.731,7337 369.288,7336 L369.273,7336 L369.266,7336 L369.262,7336 L370.791,7334.931 C371.086,7335.454 371.352,7335.825 371.996,7335.825 C372.614,7335.825 373,7335.512 373,7334.573 L373,7328 L375,7328 L375,7334.599 Z M364,7339 L384,7339 L384,7319 L364,7319 L364,7339 Z"
                    id="javascript-[#155]">

                </path>
            </g>
        </g>
    </g>
</symbol>
<symbol id="left-arrow" viewBox="3 3 18 18" fill="currentColor" xmlns="http://www.w3.org/2000/svg">
  <path fill-rule="evenodd" clip-rule="evenodd"
    d="M11.7071 4.29289C12.0976 4.68342 12.0976 5.31658 11.7071 5.70711L6.41421 11H20C20.5523 11 21 11.4477 21 12C21 12.5523 20.5523 13 20 13H6.41421L11.7071 18.2929C12.0976 18.6834 12.0976 19.3166 11.7071 19.7071C11.3166 20.0976 10.6834 20.0976 10.2929 19.7071L3.29289 12.7071C3.10536 12.5196 3 12.2652 3 12C3 11.7348 3.10536 11.4804 3.29289 11.2929L10.2929 4.29289C10.6834 3.90237 11.3166 3.90237 11.7071 4.29289Z" />
</symbol>
<symbol id="library" xmlns="http://www.w3.org/2000/svg" fill="currentColor" viewBox="3 3 24 24" version="1.1">
   <g transform="translate(0,-289.0625)">
      <rect
         style="opacity:1;fill-opacity:1;stroke:none;stroke-width:1;stroke-miterlimit:4;stroke-dasharray:none;stroke-opacity:0.71555553"
          width="4" height="24" x="3" y="292.0625" rx="2" ry="1.9999999" />
      <rect ry="1.9999999" rx="2" y="292.0625" x="9" height="24" width="4" id="rect994"
         style="opacity:1;fill-opacity:1;stroke:none;stroke-width:1;stroke-miterlimit:4;stroke-dasharray:none;stroke-opacity:0.71555553" />
      <rect
         style="opacity:1;fill-opacity:1;stroke:none;stroke-width:1;stroke-miterlimit:4;stroke-dasharray:none;stroke-opacity:0.71555553"
         id="rect996" width="4" height="24" x="-86.261955" y="280.90771" rx="2" ry="1.9999999"
         transform="rotate(-20)" />
   </g>
</symbol>
<symbol id="linkedin" fill="currentColor" version="1.1"  xmlns="http://www.w3.org/2000/svg"
	xmlns:xlink="http://www.w3.org/1999/xlink" viewBox="-143 145 512 512" xml:space="preserve">
	<path d="M-143,145v512h512V145H-143z M41.4,508.1H-8.5V348.4h49.9V508.1z M15.1,328.4h-0.4c-18.1,0-29.8-12.2-29.8-27.7
	c0-15.8,12.1-27.7,30.5-27.7c18.4,0,29.7,11.9,30.1,27.7C45.6,316.1,33.9,328.4,15.1,328.4z M241,508.1h-56.6v-82.6
	c0-21.6-8.8-36.4-28.3-36.4c-14.9,0-23.2,10-27,19.6c-1.4,3.4-1.2,8.2-1.2,13.1v86.3H71.8c0,0,0.7-146.4,0-159.7h56.1v25.1
	c3.3-11,21.2-26.6,49.8-26.6c35.5,0,63.3,23,63.3,72.4V508.1z" />
</symbol>
<symbol id="menu" viewBox="3 3 18 18" fill="currentColor" xmlns="http://www.w3.org/2000/svg">
  <path
    d="M7 12C7 13.1046 6.10457 14 5 14C3.89543 14 3 13.1046 3 12C3 10.8954 3.89543 10 5 10C6.10457 10 7 10.8954 7 12Z" />
  <path
    d="M14 12C14 13.1046 13.1046 14 12 14C10.8954 14 10 13.1046 10 12C10 10.8954 10.8954 10 12 10C13.1046 10 14 10.8954 14 12Z" />
  <path
    d="M21 12C21 13.1046 20.1046 14 19 14C17.8954 14 17 13.1046 17 12C17 10.8954 17.8954 10 19 10C20.1046 10 21 10.8954 21 12Z" />
</symbol>
<symbol id="monitor" viewBox="2 2 20 20" fill="currentColor" xmlns="http://www.w3.org/2000/svg">
  <path
    d="M2.34594 11.2501C2.12458 10.5866 2 9.92019 2 9.26044C2 3.3495 7.50016 0.662637 12 5.49877C16.4998 0.662637 22 3.34931 22 9.2604C22 9.92017 21.8754 10.5866 21.6541 11.2501H18.6361L18.5241 11.25C17.9784 11.2491 17.4937 11.2483 17.0527 11.4447C16.6116 11.6411 16.2879 12.002 15.9233 12.4084L15.8485 12.4918L14.8192 13.6354C14.7426 13.7205 14.68 13.79 14.6247 13.8493C14.5723 13.7879 14.5128 13.7159 14.4401 13.6277L10.8889 9.32318C10.7493 9.15391 10.6 8.97281 10.454 8.8384C10.2839 8.68188 10.0325 8.50581 9.68096 8.4847C9.32945 8.46359 9.05875 8.60829 8.87115 8.74333C8.71006 8.8593 8.54016 9.02123 8.38136 9.17258L6.85172 10.6294C6.37995 11.0787 6.28151 11.1553 6.17854 11.1964C6.07557 11.2376 5.9515 11.2501 5.3 11.2501H2.34594Z" />
  <path
    d="M3.00441 12.7501C4.38539 15.312 6.93029 17.7142 8.96173 19.3707C10.2937 20.4569 10.9597 21 12 21C13.0403 21 13.7063 20.4569 15.0383 19.3707C17.0697 17.7142 19.6146 15.312 20.9956 12.7501H18.6361C17.9119 12.7501 17.7746 12.7652 17.6629 12.815C17.5513 12.8647 17.4481 12.9567 16.9634 13.4952L15.9086 14.6672C15.7507 14.8428 15.5839 15.0283 15.4235 15.1628C15.2384 15.318 14.9627 15.4921 14.5896 15.4841C14.2166 15.476 13.9488 15.2904 13.7704 15.1274C13.616 14.9862 13.4574 14.7938 13.3074 14.6118L9.75487 10.3057C9.68734 10.2239 9.63239 10.1573 9.5839 10.1005C9.52897 10.1511 9.46645 10.2106 9.38961 10.2838L7.81346 11.785C7.4575 12.125 7.14165 12.4267 6.73563 12.5892C6.32961 12.7516 5.89282 12.7509 5.40054 12.7502L3.00441 12.7501Z" />
</symbol>
<symbol id="nodejs" fill="currentColor" version="1.1" xmlns="http://www.w3.org/2000/svg" xmlns:xlink="http://www.w3.org/1999/xlink"
	viewBox="0 0 512 512" enable-background="new 0 0 512 512" xml:space="preserve">

	<g >

		<path display="inline" d="M482.585,147.869v216.113c0,14.025-7.546,27.084-19.672,34.143L275.665,506.241
		c-5.989,3.474-12.782,5.259-19.719,5.259c-6.838,0-13.649-1.785-19.639-5.259l-62.521-36.99c-9.326-5.207-4.775-7.059-1.692-8.128
		c12.454-4.322,14.973-5.318,28.268-12.863c1.387-0.793,3.216-0.483,4.647,0.343l48.031,28.519c1.741,0.981,4.2,0.981,5.801,0
		l187.263-108.086c1.744-0.996,2.862-2.983,2.862-5.053V147.869c0-2.117-1.118-4.094-2.906-5.163L258.874,34.716
		c-1.726-1.01-4.03-1.01-5.768,0L65.962,142.736c-1.818,1.04-2.965,3.079-2.965,5.133v216.113c0,2.069,1.146,4.009,2.954,4.99
		l51.299,29.654c27.829,13.903,44.875-2.485,44.875-18.956V166.309c0-3.017,2.423-5.396,5.439-5.396h23.747
		c2.969,0,5.429,2.378,5.429,5.396v213.362c0,37.146-20.236,58.454-55.452,58.454c-10.816,0-19.347,0-43.138-11.713l-49.098-28.287
		c-12.133-6.995-19.638-20.117-19.638-34.143V147.869c0-14.043,7.505-27.15,19.638-34.135L236.308,5.526
		c11.85-6.701,27.608-6.701,39.357,0l187.248,108.208C475.039,120.748,482.585,133.826,482.585,147.869z M321.171,343.367
		c-55.88,0-68.175-14.048-72.294-41.836c-0.477-2.966-3.018-5.175-6.063-5.175h-27.306c-3.382,0-6.096,2.703-6.096,6.104
		c0,35.56,19.354,77.971,111.759,77.971c66.906,0,105.269-26.339,105.269-72.343c0-45.623-30.827-57.76-95.709-66.35
		c-65.579-8.678-72.243-13.147-72.243-28.508c0-12.661,5.643-29.581,54.216-29.581c43.374,0,59.365,9.349,65.94,38.576
		c0.579,2.755,3.083,4.765,5.923,4.765h27.409c1.7,0,3.315-0.73,4.47-1.943c1.158-1.28,1.773-2.947,1.611-4.695
		c-4.241-50.377-37.713-73.844-105.354-73.844c-60.209,0-96.118,25.414-96.118,68.002c0,46.217,35.729,59,93.5,64.702
		c69.138,6.782,74.504,16.883,74.504,30.488C384.589,333.299,365.655,343.367,321.171,343.367z">

		</path>

	</g>

</symbol>
<symbol id="npm" viewBox="2 2 44 44" fill="currentColor" xmlns="http://www.w3.org/2000/svg">
  <g  data-name="Layer 2">
    <g id="invisible_box" data-name="invisible box">
      <rect width="48" height="48" fill="none" />
    </g>
    <g id="Q3_icons" data-name="Q3 icons">
      <g>
        <rect x="21.6" y="19.9" width="2.4" height="4.84" />
        <path
          d="M2,15V29.7H14.2v2.5H24V29.7H46V15ZM14.2,27.2H11.8V19.9H9.3v7.3H4.5V17.5h9.7Zm12.3,0H21.6v2.5H16.7V17.5h9.8Zm17.1,0H41.2V19.9H38.7v7.3H36.2V19.9H33.8v7.3H28.9V17.5H43.6Z" />
      </g>
    </g>
  </g>
</symbol>
<symbol id="phone" viewBox="4 1.5 18 18" fill="currentColor" xmlns="http://www.w3.org/2000/svg">
  <path
    d="M16.5562 12.9062L16.1007 13.359C16.1007 13.359 15.0181 14.4355 12.0631 11.4972C9.10812 8.55901 10.1907 7.48257 10.1907 7.48257L10.4775 7.19738C11.1841 6.49484 11.2507 5.36691 10.6342 4.54348L9.37326 2.85908C8.61028 1.83992 7.13596 1.70529 6.26145 2.57483L4.69185 4.13552C4.25823 4.56668 3.96765 5.12559 4.00289 5.74561C4.09304 7.33182 4.81071 10.7447 8.81536 14.7266C13.0621 18.9492 17.0468 19.117 18.6763 18.9651C19.1917 18.9171 19.6399 18.6546 20.0011 18.2954L21.4217 16.883C22.3806 15.9295 22.1102 14.2949 20.8833 13.628L18.9728 12.5894C18.1672 12.1515 17.1858 12.2801 16.5562 12.9062Z" />
</symbol>
<symbol id="pin" viewBox="-3 0 20 20" version="1.1" xmlns="http://www.w3.org/2000/svg" xmlns:xlink="http://www.w3.org/1999/xlink">
    <g  stroke="none" stroke-width="1" fill="none" fill-rule="evenodd">
        <g id="Dribbble-Light-Preview" transform="translate(-223.000000, -5399.000000)" fill="currentColor">
            <g id="icons" transform="translate(56.000000, 160.000000)">
                <path
                    d="M174,5248.219 C172.895,5248.219 172,5247.324 172,5246.219 C172,5245.114 172.895,5244.219 174,5244.219 C175.105,5244.219 176,5245.114 176,5246.219 C176,5247.324 175.105,5248.219 174,5248.219 M174,5239 C170.134,5239 167,5242.134 167,5246 C167,5249.866 174,5259 174,5259 C174,5259 181,5249.866 181,5246 C181,5242.134 177.866,5239 174,5239"
                    id="pin_fill_sharp_circle-[#634]">

                </path>
            </g>
        </g>
    </g>
</symbol>
<symbol id="playwright" role="img" viewBox="0 0 24 24" fill="currentColor" xmlns="http://www.w3.org/2000/svg">
  <path
    d="M23.996 7.462c-.056.837-.257 2.135-.716 3.85-.995 3.715-4.27 10.874-10.42 9.227-6.15-1.65-5.407-9.487-4.412-13.201.46-1.716.934-2.94 1.305-3.694.42-.853.846-.289 1.815.523.684.573 2.41 1.791 5.011 2.488 2.601.697 4.706.506 5.583.352 1.245-.219 1.897-.494 1.834.455Zm-9.807 3.863s-.127-1.819-1.773-2.286c-1.644-.467-2.613 1.04-2.613 1.04Zm4.058 4.539-7.769-2.172s.446 2.306 3.338 3.153c2.862.836 4.43-.98 4.43-.981Zm2.701-2.51s-.13-1.818-1.773-2.286c-1.644-.469-2.612 1.038-2.612 1.038ZM8.57 18.23c-4.749 1.279-7.261-4.224-8.021-7.08C.197 9.831.044 8.832.003 8.188c-.047-.73.455-.52 1.415-.354.677.118 2.3.261 4.308-.28a11.28 11.28 0 0 0 2.41-.956c-.058.197-.114.4-.17.61-.433 1.618-.827 4.055-.632 6.426-1.976.732-2.267 2.423-2.267 2.423l2.524-.715c.227 1.002.6 1.987 1.15 2.838a5.914 5.914 0 0 1-.171.049Zm-4.188-6.298c1.265-.333 1.363-1.631 1.363-1.631l-3.374.888s.745 1.076 2.01.743Z" />
</symbol>
<symbol id="react" viewBox="1 1 22 22" fill="currentColor" xmlns="http://www.w3.org/2000/svg">

  <rect width="24" height="24" fill="none" />
  <path
    d="M12,10.11A1.87,1.87,0,1,1,10.13,12,1.88,1.88,0,0,1,12,10.11M7.37,20c.63.38,2-.2,3.6-1.7a24.22,24.22,0,0,1-1.51-1.9A22.7,22.7,0,0,1,7.06,16c-.51,2.14-.32,3.61.31,4m.71-5.74-.29-.51a7.91,7.91,0,0,0-.29.86c.27.06.57.11.88.16l-.3-.51m6.54-.76.81-1.5-.81-1.5c-.3-.53-.62-1-.91-1.47C13.17,9,12.6,9,12,9s-1.17,0-1.71,0c-.29.47-.61.94-.91,1.47L8.57,12l.81,1.5c.3.53.62,1,.91,1.47.54,0,1.11,0,1.71,0s1.17,0,1.71,0c.29-.47.61-.94.91-1.47M12,6.78c-.19.22-.39.45-.59.72h1.18c-.2-.27-.4-.5-.59-.72m0,10.44c.19-.22.39-.45.59-.72H11.41c.2.27.4.5.59.72M16.62,4c-.62-.38-2,.2-3.59,1.7a24.22,24.22,0,0,1,1.51,1.9,22.7,22.7,0,0,1,2.4.36c.51-2.14.32-3.61-.32-4m-.7,5.74.29.51a7.91,7.91,0,0,0,.29-.86c-.27-.06-.57-.11-.88-.16l.3.51m1.45-7c1.47.84,1.63,3.05,1,5.63,2.54.75,4.37,2,4.37,3.68s-1.83,2.93-4.37,3.68c.62,2.58.46,4.79-1,5.63s-3.45-.12-5.37-1.95c-1.92,1.83-3.91,2.79-5.38,1.95s-1.62-3-1-5.63c-2.54-.75-4.37-2-4.37-3.68S3.08,9.07,5.62,8.32c-.62-2.58-.46-4.79,1-5.63s3.46.12,5.38,1.95c1.92-1.83,3.91-2.79,5.37-1.95M17.08,12A22.51,22.51,0,0,1,18,14.26c2.1-.63,3.28-1.53,3.28-2.26S20.07,10.37,18,9.74A22.51,22.51,0,0,1,17.08,12M6.92,12A22.51,22.51,0,0,1,6,9.74c-2.1.63-3.28,1.53-3.28,2.26S3.93,13.63,6,14.26A22.51,22.51,0,0,1,6.92,12m9,2.26-.3.51c.31,0,.61-.1.88-.16a7.91,7.91,0,0,0-.29-.86l-.29.51M13,18.3c1.59,1.5,3,2.08,3.59,1.7s.83-1.82.32-4a22.7,22.7,0,0,1-2.4.36A24.22,24.22,0,0,1,13,18.3M8.08,9.74l.3-.51c-.31,0-.61.1-.88.16a7.91,7.91,0,0,0,.29.86l.29-.51M11,5.7C9.38,4.2,8,3.62,7.37,4s-.82,1.82-.31,4a22.7,22.7,0,0,1,2.4-.36A24.22,24.22,0,0,1,11,5.7Z" />
</symbol>
<symbol id="resume" viewBox="162 162 700 700" fill="currentColor" version="1.1" xmlns="http://www.w3.org/2000/svg">
  <path
    d="M334.336 616.3456c0 11.5712 9.5232 21.0944 21.0944 21.0944h315.4944c11.5712 0 21.0944-9.5232 21.0944-21.0944s-9.5232-21.0944-21.0944-21.0944H355.4304c-11.6736 0-21.0944 9.5232-21.0944 21.0944zM670.9248 702.0544H355.4304c-11.5712 0-21.0944 9.5232-21.0944 21.0944s9.5232 21.0944 21.0944 21.0944h315.4944c11.5712 0 21.0944-9.5232 21.0944-21.0944s-9.5232-21.0944-21.0944-21.0944z" />
  <path
    d="M586.9568 165.888H272.4864c-23.2448 0-42.1888 18.944-42.1888 42.1888v607.8464c0 23.2448 18.944 42.1888 42.1888 42.1888H751.616c23.2448 0 42.1888-18.944 42.1888-42.1888V372.736l-206.848-206.848z m27.4432 87.1424l97.1776 97.1776h-89.9072c-3.8912 0-7.2704-3.3792-7.2704-7.2704v-89.9072z m137.1136 562.7904s0 0.1024 0 0l-479.0272 0.1024s-0.1024 0-0.1024-0.1024V208.1792s0-0.1024 0.1024-0.1024h297.984l1.6384 1.6384v133.12c0 27.2384 22.3232 49.4592 49.4592 49.4592h129.9456v423.5264z" />
  <path
    d="M428.8512 388.7104c37.1712 0 67.2768-30.1056 67.2768-67.2768 0-37.1712-30.1056-67.2768-67.2768-67.2768S361.472 284.16 361.472 321.4336c0 37.1712 30.1056 67.2768 67.3792 67.2768z m0-97.6896c16.7936 0 30.4128 13.6192 30.4128 30.4128s-13.6192 30.4128-30.4128 30.4128-30.4128-13.6192-30.4128-30.4128 13.6192-30.4128 30.4128-30.4128zM355.4304 504.7296c11.6736 0 21.0944-9.4208 21.0944-21.0944 0-22.8352 23.9616-42.1888 52.3264-42.1888s52.3264 19.2512 52.3264 42.1888c0 11.6736 9.4208 21.0944 21.0944 21.0944s21.0944-9.4208 21.0944-21.0944c0-46.4896-42.3936-84.3776-94.5152-84.3776s-94.5152 37.888-94.5152 84.3776c0 11.6736 9.4208 21.0944 21.0944 21.0944z" />
</symbol>
<symbol id="right-arrow" viewBox="-3 -3 18 18" fill="currentColor" xmlns="http://www.w3.org/2000/svg">
  <g style="transform: rotateZ(180deg); transform-origin: center">
    <path fill-rule="evenodd" clip-rule="evenodd"
      d="M11.7071 4.29289C12.0976 4.68342 12.0976 5.31658 11.7071 5.70711L6.41421 11H20C20.5523 11 21 11.4477 21 12C21 12.5523 20.5523 13 20 13H6.41421L11.7071 18.2929C12.0976 18.6834 12.0976 19.3166 11.7071 19.7071C11.3166 20.0976 10.6834 20.0976 10.2929 19.7071L3.29289 12.7071C3.10536 12.5196 3 12.2652 3 12C3 11.7348 3.10536 11.4804 3.29289 11.2929L10.2929 4.29289C10.6834 3.90237 11.3166 3.90237 11.7071 4.29289Z" />
  </g>
</symbol>
<symbol id="speed" version="1.0" fill="currentColor" xmlns="http://www.w3.org/2000/svg" viewBox="0 0 32 32"
  preserveAspectRatio="xMidYMid meet">

  <g transform="translate(0.000000,32.000000) scale(0.100000,-0.100000)" stroke="none">
    <path d="M98 283 c-43 -17 -45 -23 -19 -47 28 -25 71 -3 71 36 0 32 -2 32 -52
11z" />
    <path d="M170 272 c0 -39 43 -61 71 -36 27 24 24 30 -21 48 -52 21 -50 21 -50
-12z" />
    <path d="M16 206 c-22 -47 -20 -56 12 -56 39 0 61 43 36 71 -23 26 -29 24 -48
-15z" />
    <path d="M256 221 c-25 -28 -3 -71 36 -71 32 0 34 9 12 56 -19 39 -25 41 -48
15z" />
    <path d="M142 158 c-7 -7 -12 -18 -12 -25 0 -15 100 -84 112 -77 8 5 -19 51
-55 92 -23 25 -28 27 -45 10z" />
    <path d="M0 120 c0 -19 27 -75 42 -87 12 -11 18 -10 31 5 15 17 15 21 -1 55
-13 29 -23 36 -44 37 -16 0 -28 -5 -28 -10z" />
    <path d="M257 111 c-2 -10 0 -26 5 -35 6 -11 6 -22 -2 -31 -17 -20 5 -27 23
-7 16 17 37 65 37 83 0 5 -13 9 -29 9 -20 0 -30 -6 -34 -19z" />
  </g>
</symbol>
<symbol id="testcafe" viewBox="2 2 28 28" xmlns="http://www.w3.org/2000/svg" fill="currentColor">

  <g  stroke-width="0" />
  <g id="SVGRepo_tracerCarrier" stroke-linecap="round" stroke-linejoin="round" />
  <g id="SVGRepo_iconCarrier">

    <polygon points="28.115 9.432 25.701 7 15.562 17.216 11.7 13.324 9.287 15.757 15.562 22.081 28.115 9.432" />
    <polygon
      points="19.425 19.151 18.231 20.201 22.412 20.201 25.996 23.5 5.986 23.5 9.57 20.201 12.706 20.201 11.661 19.151 8.824 19.151 2 25 30 25 23.159 19.151 19.425 19.151" />

  </g>

</symbol>
<symbol id="theme-dark" fill="currentColor" viewBox="4 5 23 23" version="1.1" xmlns="http://www.w3.org/2000/svg">
  <path
    d="M10.895 7.574c0 7.55 5.179 13.67 11.567 13.67 1.588 0 3.101-0.38 4.479-1.063-1.695 4.46-5.996 7.636-11.051 7.636-6.533 0-11.83-5.297-11.83-11.83 0-4.82 2.888-8.959 7.023-10.803-0.116 0.778-0.188 1.573-0.188 2.39z">
  </path>
</symbol>
<symbol id="theme-light" fill="currentColor" viewBox="2.5 3.5 26 26" version="1.1" xmlns="http://www.w3.org/2000/svg">
  <path
    d="M8.031 16.5c0 4.143 3.358 7.5 7.5 7.5s7.5-3.357 7.5-7.5-3.357-7.5-7.5-7.5c-4.142 0-7.5 3.357-7.5 7.5zM15.531 3.75l-2.109 4.219h4.219l-2.11-4.219zM24.543 7.457l-4.475 1.491 2.982 2.983 1.493-4.474zM10.994 8.948l-4.474-1.491 1.491 4.475 2.983-2.984zM6.969 14.359l-4.219 2.11 4.219 2.109v-4.219zM24.031 18.641l4.219-2.109-4.219-2.109v4.218zM15.531 29.25l2.109-4.219h-4.219l2.11 4.219zM20.068 24.052l4.475 1.491-1.492-4.475-2.983 2.984zM6.52 25.543l4.475-1.491-2.983-2.983-1.492 4.474z">
  </path>
</symbol>
<symbol id="typescript" fill="currentColor" viewBox="0 0 32 32" xmlns="http://www.w3.org/2000/svg">
  <path
    d="M0 16v16h32v-32h-32zM25.786 14.724c0.813 0.203 1.432 0.568 2.005 1.156 0.292 0.312 0.729 0.885 0.766 1.026 0.010 0.042-1.38 0.974-2.224 1.495-0.031 0.021-0.156-0.109-0.292-0.313-0.411-0.599-0.844-0.859-1.505-0.906-0.969-0.063-1.594 0.443-1.589 1.292-0.005 0.208 0.042 0.417 0.135 0.599 0.214 0.443 0.615 0.708 1.854 1.245 2.292 0.984 3.271 1.635 3.88 2.557 0.682 1.031 0.833 2.677 0.375 3.906-0.51 1.328-1.771 2.234-3.542 2.531-0.547 0.099-1.849 0.083-2.438-0.026-1.286-0.229-2.505-0.865-3.255-1.698-0.297-0.323-0.87-1.172-0.833-1.229 0.016-0.021 0.146-0.104 0.292-0.188s0.682-0.396 1.188-0.688l0.922-0.536 0.193 0.286c0.271 0.411 0.859 0.974 1.214 1.161 1.021 0.542 2.422 0.464 3.115-0.156 0.281-0.234 0.438-0.594 0.417-0.958 0-0.37-0.047-0.536-0.24-0.813-0.25-0.354-0.755-0.656-2.198-1.281-1.651-0.714-2.365-1.151-3.010-1.854-0.406-0.464-0.708-1.010-0.88-1.599-0.12-0.453-0.151-1.589-0.057-2.042 0.339-1.599 1.547-2.708 3.281-3.036 0.563-0.109 1.875-0.068 2.427 0.068zM18.276 16.063l0.010 1.307h-4.167v11.839h-2.948v-11.839h-4.161v-1.281c0-0.714 0.016-1.307 0.036-1.323 0.016-0.021 2.547-0.031 5.62-0.026l5.594 0.016z" />
</symbol>
<symbol id="vue" fill="currentColor" viewBox="2 2 28 28" xmlns="http://www.w3.org/2000/svg">
  <path
    d="M24.306 4.019h-4.806l-3.5 5.537-3-5.537h-11l14 23.981 14-23.981zM5.481 6.019h3.363l7.156 12.387 7.15-12.387h3.363l-10.512 18.012z" />
</symbol>
<symbol id="warning" viewBox="0 0 512 512" version="1.1" xmlns="http://www.w3.org/2000/svg" xmlns:xlink="http://www.w3.org/1999/xlink">
    <g  stroke="none" stroke-width="1" fill="none" fill-rule="evenodd">
        <g id="add" fill="currentColor" transform="translate(32.000000, 42.666667)">
            <path
                d="M246.312928,5.62892705 C252.927596,9.40873724 258.409564,14.8907053 262.189374,21.5053731 L444.667042,340.84129 C456.358134,361.300701 449.250007,387.363834 428.790595,399.054926 C422.34376,402.738832 415.04715,404.676552 407.622001,404.676552 L42.6666667,404.676552 C19.1025173,404.676552 7.10542736e-15,385.574034 7.10542736e-15,362.009885 C7.10542736e-15,354.584736 1.93772021,347.288125 5.62162594,340.84129 L188.099293,21.5053731 C199.790385,1.04596203 225.853517,-6.06216498 246.312928,5.62892705 Z M224,272 C208.761905,272 197.333333,283.264 197.333333,298.282667 C197.333333,313.984 208.415584,325.248 224,325.248 C239.238095,325.248 250.666667,313.984 250.666667,298.624 C250.666667,283.264 239.238095,272 224,272 Z M245.333333,106.666667 L202.666667,106.666667 L202.666667,234.666667 L245.333333,234.666667 L245.333333,106.666667 Z"
                id="Combined-Shape">

            </path>
        </g>
    </g>
</symbol>
<symbol id="web" viewBox="-0.2 -0.2 12.40 12.40" enable-background="new 0 0 12 12"  version="1.1" xml:space="preserve"
  xmlns="http://www.w3.org/2000/svg" xmlns:xlink="http://www.w3.org/1999/xlink" fill="currentColor"
  stroke="currentColor" stroke-width="0.36">

  <g id="SVGRepo_bgCarrier" stroke-width="0" />

  <g id="SVGRepo_tracerCarrier" stroke-linecap="round" stroke-linejoin="round" stroke="#CCCCCC" stroke-width="0.072" />

  <g id="SVGRepo_iconCarrier">
    <g>
      <path d="M3.7796631,8.75C4.1953125,10.6790771,5.0326538,12,6,12s1.8046875-1.3209229,2.2203369-3.25H3.7796631z" />
      <path
        d="M9.2371216,3.25h2.0916748c-0.664978-1.2857056-1.779541-2.2975464-3.1375122-2.8312378 C8.6710815,1.1671753,9.0209351,2.1549683,9.2371216,3.25z" />
      <path
        d="M8.3912964,4.25H3.6087036C3.5383911,4.803833,3.5,5.3909912,3.5,6s0.0383911,1.196167,0.1087036,1.75 h4.7825928C8.4616089,7.196167,8.5,6.6090088,8.5,6S8.4616089,4.803833,8.3912964,4.25z" />
      <path
        d="M9.5,6c0,0.5882568-0.0372925,1.1765137-0.1055298,1.75h2.3445435C11.9077148,7.196167,12,6.6090088,12,6 s-0.0922852-1.196167-0.2609863-1.75H9.3944702C9.4627075,4.8234863,9.5,5.4117432,9.5,6z" />
      <path d="M8.2203369,3.25C7.8046875,1.3209229,6.9673462,0,6,0S4.1953125,1.3209229,3.7796631,3.25H8.2203369z" />
      <path
        d="M2.7628784,8.75H0.6712036c0.664978,1.2857056,1.779541,2.2975464,3.1375122,2.8312378 C3.3289185,10.8328247,2.9790649,9.8450317,2.7628784,8.75z" />
      <path
        d="M2.5,6c0-0.5882568,0.0372925-1.1765137,0.1055298-1.75H0.2609863C0.0922852,4.803833,0,5.3909912,0,6 s0.0922852,1.196167,0.2609863,1.75h2.3445435C2.5372925,7.1765137,2.5,6.5882568,2.5,6z" />
      <path
        d="M9.2371216,8.75c-0.2161865,1.0950317-0.56604,2.0828247-1.0458374,2.8312378 C9.5492554,11.0475464,10.6638184,10.0357056,11.3287964,8.75H9.2371216z" />
      <path
        d="M2.7628784,3.25c0.2161865-1.0950317,0.56604-2.0828247,1.0458374-2.8312378 C2.4507446,0.9524536,1.3361816,1.9642944,0.6712036,3.25H2.7628784z" />
    </g>
  </g>

</symbol>
<symbol id="webaudio" viewBox="41 41 430 430" version="1.1" xmlns="http://www.w3.org/2000/svg" xmlns:xlink="http://www.w3.org/1999/xlink">

  <g  stroke-width="0" />
  <g id="SVGRepo_tracerCarrier" stroke-linecap="round" stroke-linejoin="round" />
  <g id="SVGRepo_iconCarrier">
    <g id="Page-1" stroke="none" stroke-width="1" fill="none" fill-rule="evenodd">
      <g id="icon" fill="currentColor" transform="translate(42.666667, 42.666667)">
        <path
          d="M384,170.666667 L426.666667,170.666667 L426.666667,256 L384,256 L384,170.666667 Z M320,106.666667 L362.666667,106.666667 L362.666667,320 L320,320 L320,106.666667 Z M256,128 L298.666667,128 L298.666667,298.666667 L256,298.666667 L256,128 Z M192,64 L234.666667,64 L234.666667,362.666667 L192,362.666667 L192,64 Z M7.10542736e-15,170.666667 L42.6666667,170.666667 L42.6666667,256 L7.10542736e-15,256 L7.10542736e-15,170.666667 Z M64,106.666667 L106.666667,106.666667 L106.666667,320 L64,320 L64,106.666667 Z M128,7.10542736e-15 L170.666667,7.10542736e-15 L170.666667,426.666667 L128,426.666667 L128,7.10542736e-15 Z"
          id="Combined-Shape"> </path>
      </g>
    </g>
  </g>

</symbol>
<symbol id="webgl" fill="currentColor" viewBox="0 0 24 24" role="img" xmlns="http://www.w3.org/2000/svg">
  <path
    d="M18.928 14.179c-.214.09-.427.135-.643.135-.342 0-.65-.059-.923-.178a1.963 1.963 0 0 1-.69-.491c-.187-.209-.332-.453-.432-.735s-.149-.586-.149-.911c0-.335.05-.643.149-.93.1-.287.242-.536.429-.747a1.96 1.96 0 0 1 .69-.501 2.25 2.25 0 0 1 .923-.183c.23 0 .451.036.664.104.214.069.408.171.581.304s.316.299.427.496a1.7 1.7 0 0 1 .206.676h-.935c-.059-.249-.171-.437-.337-.562a.973.973 0 0 0-.607-.187c-.221 0-.408.043-.562.128s-.28.199-.375.344c-.095.145-.166.308-.209.491s-.066.372-.066.569c0 .187.021.37.066.548.043.178.114.337.209.479.095.142.221.256.375.342s.342.128.562.128c.325 0 .577-.083.754-.247.178-.164.28-.401.311-.714h-.987V11.8h1.872v2.413h-.624l-.1-.505a1.444 1.444 0 0 1-.579.471zm2.896-4.429v3.632H24v.828h-3.155V9.75h.979zM2.785 11.999c0-.709.343-1.376.948-1.962l1.109 4.221h.764l1.075-3.815 1.06 3.815h.766l1.321-4.856h-.86l-.861 3.725-1.039-3.726H6.28l-1.039 3.725-.84-3.632c1.489-1.025 3.868-1.69 6.548-1.69 2.512 0 4.764.529 6.261 1.445-1.632-1.535-4.565-2.612-7.915-2.614C4.161 6.635 0 9.036 0 11.999s4.161 5.367 9.293 5.367c3.338 0 6.261-1.075 7.9-2.6-1.497.911-3.741 1.428-6.244 1.428-4.51-.001-8.164-1.877-8.164-4.195zm9.194-.553a1.184 1.184 0 0 0-.444-.384 1.378 1.378 0 0 0-.622-.135c-.261 0-.496.047-.7.14a1.313 1.313 0 0 0-.489.387c-.244.311-.372.75-.372 1.269 0 .23.033.448.097.643a1.5 1.5 0 0 0 .285.515c.261.304.633.465 1.077.465.233 0 .422-.024.581-.074.138-.043.23-.1.306-.149a1.357 1.357 0 0 0 .444-.489c.09-.166.135-.323.145-.403l.007-.055h-.633l-.002.045c-.017.206-.287.574-.769.574-.688 0-.852-.498-.864-.937h2.306v-.05a3.15 3.15 0 0 0-.085-.766 1.84 1.84 0 0 0-.268-.596zm-1.139.05c.51 0 .783.275.833.84h-1.651c.025-.458.388-.84.818-.84zm4.678.415a1.575 1.575 0 0 0-.268-.515 1.25 1.25 0 0 0-.437-.346 1.36 1.36 0 0 0-.586-.126 1.141 1.141 0 0 0-.531.128 1.1 1.1 0 0 0-.346.28v-1.49h-.631v4.413h.6v-.301a.964.964 0 0 0 .211.206c.171.123.382.185.626.185.263 0 .501-.059.7-.176.178-.104.33-.254.448-.444a1.93 1.93 0 0 0 .235-.584 2.66 2.66 0 0 0 .069-.603 1.986 1.986 0 0 0-.09-.627zm-.567.717c0 .346-.069.636-.202.84a.682.682 0 0 1-.605.325c-.377 0-.819-.263-.819-1.008 0-.356.045-.631.135-.84.13-.301.351-.446.671-.446.342 0 .572.133.7.41.106.227.12.505.12.719z" />
</symbol>
</svg>